<?xml version="1.0" encoding="utf-8"?>
<!-- Generator: Adobe Illustrator 16.0.0, SVG Export Plug-In . SVG Version: 6.00 Build 0)  -->
<!DOCTYPE svg PUBLIC "-//W3C//DTD SVG 1.1//EN" "http://www.w3.org/Graphics/SVG/1.1/DTD/svg11.dtd">
<svg version="1.1" id="Capa_1" xmlns="http://www.w3.org/2000/svg" xmlns:xlink="http://www.w3.org/1999/xlink" x="0px" y="0px"
	 width="256px" height="256px" viewBox="0 0 256 256" enable-background="new 0 0 256 256" xml:space="preserve">
<g>
	<path fill="#FFFFFF" d="M154.641,198.374c-6.589,2.601-11.834,4.573-15.767,5.938c-3.923,1.365-8.485,2.048-13.675,2.048
		c-7.975,0-14.184-1.95-18.605-5.841c-4.421-3.89-6.621-8.82-6.621-14.813c0-2.33,0.163-4.714,0.488-7.141
		c0.336-2.428,0.867-5.158,1.593-8.225l8.246-29.127c0.726-2.796,1.354-5.451,1.853-7.922c0.499-2.492,0.737-4.778,0.737-6.859
		c0-3.706-0.769-6.307-2.297-7.769c-1.549-1.463-4.464-2.178-8.81-2.178c-2.124,0-4.313,0.314-6.556,0.975
		c-2.221,0.683-4.15,1.3-5.732,1.907l2.178-8.972c5.396-2.2,10.565-4.085,15.496-5.646c4.93-1.582,9.59-2.362,13.979-2.362
		c7.921,0,14.032,1.929,18.334,5.743c4.28,3.825,6.438,8.799,6.438,14.91c0,1.268-0.152,3.5-0.445,6.686
		c-0.292,3.196-0.845,6.111-1.646,8.787l-8.203,29.041c-0.672,2.33-1.268,4.996-1.81,7.976c-0.53,2.979-0.791,5.255-0.791,6.783
		c0,3.857,0.856,6.491,2.59,7.889c1.712,1.397,4.714,2.103,8.962,2.103c2.004,0,4.247-0.358,6.783-1.052
		c2.514-0.693,4.334-1.312,5.482-1.842L154.641,198.374z M153.188,80.5c-3.825,3.554-8.431,5.332-13.815,5.332
		c-5.375,0-10.014-1.777-13.871-5.332c-3.836-3.554-5.776-7.878-5.776-12.927c0-5.039,1.951-9.373,5.776-12.96
		c3.857-3.598,8.496-5.385,13.871-5.385c5.385,0,10.001,1.788,13.815,5.385c3.825,3.587,5.743,7.921,5.743,12.96
		C158.932,72.634,157.014,76.946,153.188,80.5z"/>
</g>
</svg>
